<?xml version="1.0" encoding="utf-8"?>
<!-- Generator: Adobe Illustrator 23.0.3, SVG Export Plug-In . SVG Version: 6.00 Build 0)  -->
<svg version="1.1" id="Calque_1" xmlns="http://www.w3.org/2000/svg" xmlns:xlink="http://www.w3.org/1999/xlink" x="0px" y="0px"
	 viewBox="0 0 476 198" style="enable-background:new 0 0 476 198;" xml:space="preserve">
<style type="text/css">
	.st0{fill:#0065BD;}
	.st1{fill:#F0AB00;}
</style>
<path class="st0" d="M178.54,110.86c0,3.83,0.17,7.56,0.7,10.17h-9.65l-0.78-4.7h-0.26c-2.52,3.31-6.96,5.65-12.52,5.65
	c-8.52,0-13.3-6.17-13.3-12.61c0-10.61,9.48-16.08,25.13-16v-0.69c0-2.78-1.13-7.39-8.61-7.39c-4.17,0-8.52,1.3-11.39,3.13
	l-2.08-6.96c3.13-1.91,8.61-3.74,15.3-3.74c13.56,0,17.48,8.61,17.48,17.91V110.86z M168.11,100.34
	c-7.56-0.09-14.78,1.48-14.78,7.91c0,4.17,2.7,6.09,6.09,6.09c4.35,0,7.39-2.78,8.43-5.83c0.26-0.78,0.26-1.57,0.26-2.35V100.34z"/>
<path class="st0" d="M189.85,91.29c0-4.87-0.17-8.95-0.35-12.61h9.13l0.52,6.26h0.26c2-3.31,5.83-7.22,13.04-7.22
	c5.57,0,9.92,3.13,11.74,7.83h0.18c1.48-2.35,3.22-4.08,5.13-5.3c2.43-1.65,5.13-2.52,8.69-2.52c6.96,0,14.09,4.78,14.09,18.34
	v24.96h-10.43V97.64c0-7.04-2.43-11.22-7.56-11.22c-3.65,0-6.35,2.61-7.48,5.65c-0.35,0.96-0.52,2.35-0.52,3.57v25.39h-10.43V96.51
	c0-5.91-2.35-10.08-7.3-10.08c-4,0-6.69,3.13-7.74,6c-0.35,1.13-0.52,2.35-0.52,3.56v25.04h-10.44V91.29z"/>
<path class="st0" d="M263.15,111.12c2.35,1.48,6.95,3.13,10.78,3.13c4.7,0,6.78-2,6.78-4.78c0-2.87-1.74-4.26-6.96-6.17
	c-8.26-2.78-11.65-7.3-11.65-12.34c0-7.48,6.17-13.22,16-13.22c4.7,0,8.78,1.13,11.31,2.52l-2.18,7.47
	c-1.74-1.04-5.22-2.43-8.95-2.43c-3.83,0-5.91,1.91-5.91,4.52c0,2.7,2,3.92,7.39,5.91c7.73,2.69,11.22,6.61,11.3,12.87
	c0,7.74-6,13.3-17.21,13.3c-5.13,0-9.74-1.22-12.87-2.96L263.15,111.12z"/>
<path class="st0" d="M307.22,102.27c0.26,7.65,6.17,10.96,13.04,10.96c4.95,0,8.43-0.78,11.74-1.91l1.56,7.3
	c-3.65,1.57-8.69,2.69-14.78,2.69c-13.74-0.01-21.82-8.44-21.82-21.39c0-11.74,7.13-22.78,20.7-22.78
	c13.74,0,18.26,11.31,18.26,20.61c0,2-0.18,3.57-0.35,4.52L307.22,102.27z M325.83,94.79c0.09-3.91-1.65-10.35-8.78-10.35
	c-6.61,0-9.39,6-9.83,10.35H325.83z"/>
<g>
	<path class="st0" d="M148.26,174.06c0.53-0.07,0.9-0.15,1.13-0.25c0.41-0.17,0.61-0.44,0.61-0.8c0-0.44-0.16-0.75-0.47-0.92
		c-0.31-0.17-0.77-0.25-1.37-0.25c-0.68,0-1.16,0.16-1.44,0.49c-0.2,0.24-0.33,0.58-0.4,0.99h-2.73c0.06-0.95,0.33-1.72,0.8-2.33
		c0.75-0.95,2.04-1.43,3.86-1.43c1.19,0,2.24,0.24,3.16,0.71c0.92,0.46,1.38,1.35,1.38,2.65v4.95c0,0.34,0.01,0.76,0.02,1.25
		c0.02,0.37,0.08,0.62,0.17,0.75c0.09,0.13,0.23,0.24,0.42,0.33v0.42h-3.07c-0.09-0.22-0.15-0.42-0.18-0.62
		c-0.03-0.19-0.06-0.41-0.08-0.65c-0.39,0.42-0.84,0.78-1.35,1.08c-0.61,0.35-1.3,0.53-2.07,0.53c-0.98,0-1.8-0.28-2.44-0.84
		c-0.64-0.56-0.96-1.35-0.96-2.37c0-1.33,0.52-2.29,1.55-2.89c0.56-0.32,1.4-0.55,2.5-0.69L148.26,174.06z M149.99,175.38
		c-0.18,0.11-0.36,0.2-0.55,0.27c-0.18,0.07-0.44,0.13-0.76,0.19l-0.64,0.12c-0.6,0.1-1.04,0.24-1.3,0.39
		c-0.44,0.25-0.67,0.66-0.67,1.2c0,0.48,0.14,0.83,0.41,1.05c0.27,0.21,0.6,0.32,0.99,0.32c0.62,0,1.18-0.18,1.71-0.53
		c0.52-0.36,0.79-1.01,0.81-1.95V175.38z"/>
	<path class="st0" d="M157.97,168.54h-2.86v-2.61h2.86V168.54z M155.11,169.83h2.86v10.8h-2.86V169.83z"/>
	<polygon class="st0" points="159.43,180.63 163.11,175.16 159.59,169.85 163.04,169.85 164.84,172.98 166.61,169.85 169.97,169.85 
		166.42,175.11 170.11,180.63 166.59,180.63 164.73,177.38 162.85,180.63 	"/>
	<rect x="170.73" y="173.63" class="st0" width="5.53" height="2.68"/>
	<path class="st0" d="M191.61,169.87c0.46,0.18,0.88,0.51,1.26,0.97c0.3,0.38,0.51,0.84,0.62,1.39c0.06,0.36,0.1,0.9,0.1,1.59
		l-0.02,6.81h-2.9v-6.88c0-0.41-0.06-0.75-0.2-1.01c-0.25-0.5-0.71-0.75-1.39-0.75c-0.78,0-1.32,0.32-1.61,0.97
		c-0.15,0.35-0.23,0.76-0.23,1.24v6.43h-2.84v-6.43c0-0.64-0.06-1.11-0.2-1.4c-0.23-0.52-0.7-0.78-1.4-0.78
		c-0.81,0-1.35,0.26-1.63,0.78c-0.15,0.3-0.23,0.74-0.23,1.33v6.5h-2.86v-10.78h2.75v1.57c0.35-0.56,0.68-0.96,0.99-1.2
		c0.55-0.43,1.26-0.63,2.13-0.63c0.83,0,1.49,0.18,2,0.54c0.41,0.34,0.72,0.77,0.93,1.3c0.37-0.64,0.83-1.1,1.38-1.4
		c0.58-0.3,1.23-0.45,1.94-0.45C190.68,169.59,191.15,169.68,191.61,169.87"/>
	<path class="st0" d="M200.25,174.06c0.53-0.07,0.9-0.15,1.13-0.25c0.41-0.17,0.61-0.44,0.61-0.8c0-0.44-0.16-0.75-0.47-0.92
		c-0.31-0.17-0.77-0.25-1.37-0.25c-0.68,0-1.16,0.16-1.44,0.49c-0.2,0.24-0.34,0.58-0.4,0.99h-2.73c0.06-0.95,0.33-1.72,0.8-2.33
		c0.75-0.95,2.04-1.43,3.86-1.43c1.19,0,2.24,0.24,3.16,0.71c0.92,0.46,1.38,1.35,1.38,2.65v4.95c0,0.34,0.01,0.76,0.02,1.25
		c0.02,0.37,0.08,0.62,0.17,0.75c0.09,0.13,0.23,0.24,0.42,0.33v0.42h-3.07c-0.09-0.22-0.15-0.42-0.18-0.62
		c-0.03-0.19-0.06-0.41-0.08-0.65c-0.39,0.42-0.84,0.78-1.36,1.08c-0.61,0.35-1.3,0.53-2.07,0.53c-0.98,0-1.8-0.28-2.44-0.84
		c-0.64-0.56-0.96-1.35-0.96-2.37c0-1.33,0.52-2.29,1.55-2.89c0.56-0.32,1.4-0.55,2.5-0.69L200.25,174.06z M201.98,175.38
		c-0.18,0.11-0.36,0.2-0.55,0.27c-0.18,0.07-0.44,0.13-0.76,0.19l-0.64,0.12c-0.6,0.1-1.04,0.24-1.3,0.39
		c-0.44,0.25-0.67,0.66-0.67,1.2c0,0.48,0.14,0.83,0.41,1.05c0.27,0.21,0.6,0.32,0.99,0.32c0.62,0,1.19-0.18,1.71-0.53
		c0.52-0.36,0.79-1.01,0.81-1.95V175.38z"/>
	<path class="st0" d="M213.06,169.58c0.03,0,0.12,0.01,0.24,0.01v2.89c-0.18-0.02-0.34-0.03-0.47-0.04
		c-0.14-0.01-0.25-0.01-0.34-0.01c-1.14,0-1.9,0.37-2.29,1.11c-0.22,0.42-0.33,1.06-0.33,1.92v5.16h-2.84v-10.8h2.7v1.88
		c0.44-0.72,0.81-1.21,1.14-1.47c0.53-0.45,1.21-0.67,2.06-0.67C212.98,169.57,213.02,169.57,213.06,169.58"/>
	<path class="st0" d="M216.94,177.18c0.06,0.5,0.19,0.86,0.39,1.07c0.35,0.38,1,0.57,1.95,0.57c0.56,0,1-0.08,1.33-0.25
		c0.33-0.16,0.49-0.41,0.49-0.74c0-0.32-0.13-0.56-0.4-0.72c-0.27-0.16-1.25-0.45-2.95-0.85c-1.23-0.3-2.09-0.68-2.59-1.14
		c-0.5-0.45-0.75-1.09-0.75-1.94c0-1,0.39-1.85,1.18-2.57c0.78-0.72,1.89-1.07,3.31-1.07c1.35,0,2.45,0.27,3.3,0.8
		c0.85,0.54,1.34,1.47,1.46,2.79h-2.82c-0.04-0.36-0.14-0.65-0.31-0.86c-0.31-0.38-0.84-0.57-1.59-0.57c-0.62,0-1.06,0.1-1.31,0.29
		c-0.26,0.19-0.4,0.42-0.4,0.67c0,0.32,0.14,0.56,0.42,0.7c0.28,0.15,1.26,0.41,2.95,0.78c1.13,0.27,1.97,0.66,2.53,1.2
		c0.55,0.54,0.83,1.22,0.83,2.03c0,1.07-0.4,1.94-1.2,2.62c-0.8,0.68-2.03,1.02-3.7,1.02c-1.7,0-2.96-0.36-3.77-1.08
		c-0.81-0.72-1.22-1.63-1.22-2.74H216.94z"/>
	<path class="st0" d="M232.87,170.05c0.75,0.34,1.38,0.87,1.86,1.6c0.44,0.64,0.73,1.39,0.86,2.23c0.07,0.5,0.1,1.21,0.09,2.14
		h-7.87c0.05,1.08,0.42,1.84,1.13,2.28c0.43,0.27,0.95,0.41,1.56,0.41c0.64,0,1.17-0.16,1.57-0.5c0.22-0.18,0.41-0.43,0.58-0.74
		h2.88c-0.07,0.64-0.43,1.29-1.05,1.95c-0.97,1.05-2.32,1.58-4.06,1.58c-1.44,0-2.7-0.44-3.81-1.33c-1.1-0.89-1.65-2.33-1.65-4.33
		c0-1.87,0.5-3.3,1.49-4.3c0.99-1,2.28-1.5,3.86-1.5C231.27,169.54,232.12,169.71,232.87,170.05 M228.65,172.49
		c-0.4,0.41-0.65,0.97-0.75,1.67h4.86c-0.05-0.75-0.3-1.32-0.75-1.71c-0.45-0.39-1.01-0.58-1.68-0.58
		C229.61,171.87,229.05,172.08,228.65,172.49"/>
	<path class="st0" d="M239.82,168.54h-2.86v-2.61h2.86V168.54z M236.96,169.83h2.86v10.8h-2.86V169.83z"/>
	<rect x="242.41" y="166.03" class="st0" width="2.82" height="14.6"/>
	<rect x="247.85" y="166.03" class="st0" width="2.82" height="14.6"/>
	<path class="st0" d="M260.26,170.05c0.75,0.34,1.38,0.87,1.87,1.6c0.44,0.64,0.73,1.39,0.86,2.23c0.07,0.5,0.1,1.21,0.09,2.14
		h-7.87c0.05,1.08,0.42,1.84,1.13,2.28c0.43,0.27,0.95,0.41,1.56,0.41c0.64,0,1.17-0.16,1.57-0.5c0.22-0.18,0.41-0.43,0.58-0.74
		h2.88c-0.07,0.64-0.43,1.29-1.05,1.95c-0.97,1.05-2.32,1.58-4.06,1.58c-1.44,0-2.7-0.44-3.8-1.33c-1.1-0.89-1.65-2.33-1.65-4.33
		c0-1.87,0.5-3.3,1.49-4.3c0.99-1,2.28-1.5,3.86-1.5C258.66,169.54,259.5,169.71,260.26,170.05 M256.03,172.49
		c-0.4,0.41-0.65,0.97-0.75,1.67h4.86c-0.05-0.75-0.3-1.32-0.75-1.71c-0.45-0.39-1.01-0.58-1.68-0.58
		C256.99,171.87,256.43,172.08,256.03,172.49"/>
	<path class="st0" d="M271.92,177.18c0.06,0.5,0.19,0.86,0.39,1.07c0.35,0.38,1,0.57,1.95,0.57c0.56,0,1-0.08,1.33-0.25
		c0.33-0.16,0.49-0.41,0.49-0.74c0-0.32-0.13-0.56-0.4-0.72c-0.27-0.16-1.25-0.45-2.95-0.85c-1.23-0.3-2.09-0.68-2.59-1.14
		c-0.5-0.45-0.75-1.09-0.75-1.94c0-1,0.39-1.85,1.18-2.57c0.79-0.72,1.89-1.07,3.31-1.07c1.35,0,2.45,0.27,3.3,0.8
		c0.85,0.54,1.34,1.47,1.46,2.79h-2.82c-0.04-0.36-0.14-0.65-0.31-0.86c-0.31-0.38-0.84-0.57-1.59-0.57c-0.62,0-1.05,0.1-1.32,0.29
		c-0.26,0.19-0.39,0.42-0.39,0.67c0,0.32,0.14,0.56,0.42,0.7c0.28,0.15,1.26,0.41,2.95,0.78c1.13,0.27,1.97,0.66,2.53,1.2
		c0.55,0.54,0.83,1.22,0.83,2.03c0,1.07-0.4,1.94-1.2,2.62c-0.8,0.68-2.03,1.02-3.7,1.02c-1.7,0-2.96-0.36-3.77-1.08
		c-0.81-0.72-1.22-1.63-1.22-2.74H271.92z"/>
	<path class="st0" d="M287.28,173.7c-0.05-0.4-0.19-0.76-0.41-1.09c-0.32-0.44-0.81-0.65-1.48-0.65c-0.96,0-1.61,0.47-1.96,1.42
		c-0.19,0.5-0.28,1.17-0.28,2c0,0.79,0.09,1.43,0.28,1.91c0.34,0.9,0.97,1.35,1.9,1.35c0.67,0,1.13-0.18,1.41-0.54
		c0.28-0.36,0.45-0.82,0.5-1.39h2.88c-0.07,0.86-0.38,1.67-0.93,2.44c-0.88,1.23-2.2,1.85-3.94,1.85c-1.74,0-3.02-0.52-3.84-1.55
		c-0.82-1.03-1.23-2.37-1.23-4.01c0-1.85,0.45-3.29,1.36-4.33c0.91-1.03,2.16-1.55,3.75-1.55c1.36,0,2.46,0.3,3.33,0.91
		c0.86,0.61,1.38,1.68,1.53,3.22H287.28z"/>
	<path class="st0" d="M299.66,169.89c0.54,0.23,0.99,0.59,1.34,1.06c0.29,0.4,0.48,0.82,0.54,1.24c0.06,0.42,0.1,1.12,0.1,2.09v6.35
		h-2.88v-6.58c0-0.58-0.1-1.05-0.29-1.41c-0.25-0.5-0.74-0.75-1.45-0.75c-0.74,0-1.3,0.25-1.69,0.75c-0.39,0.5-0.58,1.21-0.58,2.14
		v5.85h-2.82v-14.55h2.82v5.15c0.41-0.62,0.88-1.06,1.41-1.31c0.54-0.25,1.1-0.38,1.69-0.38
		C298.51,169.54,299.12,169.66,299.66,169.89"/>
	<path class="st0" d="M313.1,179.31c-0.91,1.13-2.29,1.69-4.15,1.69c-1.86,0-3.24-0.56-4.15-1.69c-0.91-1.13-1.37-2.48-1.37-4.06
		c0-1.56,0.45-2.91,1.37-4.05c0.91-1.14,2.29-1.71,4.15-1.71c1.86,0,3.24,0.57,4.15,1.71c0.91,1.14,1.37,2.49,1.37,4.05
		C314.46,176.83,314.01,178.18,313.1,179.31 M310.84,177.75c0.44-0.58,0.66-1.42,0.66-2.5c0-1.08-0.22-1.92-0.66-2.5
		c-0.44-0.58-1.08-0.87-1.9-0.87c-0.83,0-1.46,0.29-1.91,0.87c-0.44,0.58-0.67,1.42-0.67,2.5c0,1.08,0.22,1.92,0.67,2.5
		c0.45,0.59,1.08,0.88,1.91,0.88C309.76,178.63,310.39,178.34,310.84,177.75"/>
	<path class="st0" d="M325.29,179.31c-0.91,1.13-2.29,1.69-4.15,1.69c-1.86,0-3.24-0.56-4.15-1.69c-0.91-1.13-1.37-2.48-1.37-4.06
		c0-1.56,0.45-2.91,1.37-4.05c0.91-1.14,2.29-1.71,4.15-1.71c1.86,0,3.24,0.57,4.15,1.71c0.91,1.14,1.37,2.49,1.37,4.05
		C326.65,176.83,326.2,178.18,325.29,179.31 M323.03,177.75c0.44-0.58,0.66-1.42,0.66-2.5c0-1.08-0.22-1.92-0.66-2.5
		c-0.45-0.58-1.08-0.87-1.9-0.87c-0.83,0-1.46,0.29-1.91,0.87c-0.45,0.58-0.67,1.42-0.67,2.5c0,1.08,0.22,1.92,0.67,2.5
		c0.44,0.59,1.08,0.88,1.91,0.88C321.95,178.63,322.58,178.34,323.03,177.75"/>
	<rect x="328.53" y="166.03" class="st0" width="2.82" height="14.6"/>
	<path class="st0" d="M348.35,179.31c-0.91,1.13-2.29,1.69-4.15,1.69c-1.86,0-3.24-0.56-4.15-1.69c-0.91-1.13-1.37-2.48-1.37-4.06
		c0-1.56,0.45-2.91,1.37-4.05c0.91-1.14,2.29-1.71,4.15-1.71c1.86,0,3.24,0.57,4.15,1.71c0.91,1.14,1.37,2.49,1.37,4.05
		C349.71,176.83,349.26,178.18,348.35,179.31 M346.09,177.75c0.44-0.58,0.66-1.42,0.66-2.5c0-1.08-0.22-1.92-0.66-2.5
		c-0.45-0.58-1.08-0.87-1.9-0.87c-0.83,0-1.46,0.29-1.91,0.87c-0.45,0.58-0.67,1.42-0.67,2.5c0,1.08,0.22,1.92,0.67,2.5
		c0.45,0.59,1.08,0.88,1.91,0.88C345.01,178.63,345.65,178.34,346.09,177.75"/>
	<path class="st0" d="M356,165.89c0.14,0.01,0.34,0.03,0.59,0.04v2.3c-0.16-0.02-0.42-0.04-0.8-0.05c-0.37-0.01-0.63,0.07-0.77,0.25
		c-0.14,0.18-0.22,0.37-0.22,0.58v0.91h1.85v1.99h-1.85v8.71h-2.8v-8.71h-1.59v-1.99h1.55v-0.69c0-1.16,0.19-1.95,0.58-2.39
		c0.41-0.65,1.4-0.97,2.96-0.97C355.69,165.88,355.86,165.88,356,165.89"/>
	<path class="st0" d="M370.56,170.05c0.75,0.34,1.38,0.87,1.87,1.6c0.44,0.64,0.73,1.39,0.86,2.23c0.07,0.5,0.1,1.21,0.09,2.14
		h-7.87c0.05,1.08,0.42,1.84,1.13,2.28c0.43,0.27,0.95,0.41,1.56,0.41c0.64,0,1.16-0.16,1.57-0.5c0.22-0.18,0.41-0.43,0.58-0.74
		h2.88c-0.08,0.64-0.43,1.29-1.05,1.95c-0.97,1.05-2.32,1.58-4.06,1.58c-1.44,0-2.71-0.44-3.8-1.33c-1.1-0.89-1.65-2.33-1.65-4.33
		c0-1.87,0.5-3.3,1.49-4.3c0.99-1,2.28-1.5,3.86-1.5C368.96,169.54,369.81,169.71,370.56,170.05 M366.33,172.49
		c-0.4,0.41-0.65,0.97-0.75,1.67h4.86c-0.05-0.75-0.3-1.32-0.75-1.71c-0.45-0.39-1.01-0.58-1.68-0.58
		C367.3,171.87,366.73,172.08,366.33,172.49"/>
	<path class="st0" d="M381.06,173.7c-0.05-0.4-0.19-0.76-0.41-1.09c-0.32-0.44-0.81-0.65-1.48-0.65c-0.96,0-1.61,0.47-1.96,1.42
		c-0.19,0.5-0.28,1.17-0.28,2c0,0.79,0.09,1.43,0.28,1.91c0.34,0.9,0.97,1.35,1.91,1.35c0.66,0,1.13-0.18,1.41-0.54
		c0.28-0.36,0.45-0.82,0.5-1.39h2.88c-0.07,0.86-0.38,1.67-0.93,2.44c-0.88,1.23-2.2,1.85-3.94,1.85c-1.74,0-3.02-0.52-3.84-1.55
		s-1.23-2.37-1.23-4.01c0-1.85,0.45-3.29,1.36-4.33c0.91-1.03,2.16-1.55,3.75-1.55c1.35,0,2.46,0.3,3.33,0.91
		c0.86,0.61,1.38,1.68,1.54,3.22H381.06z"/>
	<path class="st0" d="M394.69,179.31c-0.91,1.13-2.29,1.69-4.15,1.69c-1.86,0-3.24-0.56-4.15-1.69c-0.91-1.13-1.37-2.48-1.37-4.06
		c0-1.56,0.45-2.91,1.37-4.05c0.91-1.14,2.29-1.71,4.15-1.71c1.86,0,3.24,0.57,4.15,1.71c0.91,1.14,1.37,2.49,1.37,4.05
		C396.06,176.83,395.61,178.18,394.69,179.31 M392.44,177.75c0.44-0.58,0.66-1.42,0.66-2.5c0-1.08-0.22-1.92-0.66-2.5
		c-0.45-0.58-1.08-0.87-1.9-0.87c-0.83,0-1.46,0.29-1.91,0.87c-0.44,0.58-0.67,1.42-0.67,2.5c0,1.08,0.22,1.92,0.67,2.5
		c0.45,0.59,1.08,0.88,1.91,0.88C391.36,178.63,391.99,178.34,392.44,177.75"/>
	<path class="st0" d="M406.59,170.45c0.71,0.58,1.06,1.55,1.06,2.91v7.27h-2.89v-6.57c0-0.57-0.08-1-0.23-1.31
		c-0.27-0.56-0.8-0.83-1.57-0.83c-0.95,0-1.6,0.4-1.96,1.22c-0.18,0.43-0.27,0.98-0.27,1.65v5.84h-2.83v-10.78h2.73v1.57
		c0.36-0.55,0.7-0.95,1.03-1.2c0.58-0.44,1.31-0.66,2.2-0.66C404.97,169.57,405.88,169.86,406.59,170.45"/>
	<path class="st0" d="M419.08,179.31c-0.91,1.13-2.29,1.69-4.15,1.69c-1.86,0-3.24-0.56-4.15-1.69c-0.91-1.13-1.37-2.48-1.37-4.06
		c0-1.56,0.45-2.91,1.37-4.05c0.91-1.14,2.29-1.71,4.15-1.71c1.86,0,3.24,0.57,4.15,1.71c0.91,1.14,1.37,2.49,1.37,4.05
		C420.44,176.83,419.99,178.18,419.08,179.31 M416.82,177.75c0.44-0.58,0.66-1.42,0.66-2.5c0-1.08-0.22-1.92-0.66-2.5
		c-0.45-0.58-1.08-0.87-1.9-0.87c-0.83,0-1.46,0.29-1.91,0.87c-0.44,0.58-0.67,1.42-0.67,2.5c0,1.08,0.22,1.92,0.67,2.5
		c0.45,0.59,1.08,0.88,1.91,0.88C415.74,178.63,416.37,178.34,416.82,177.75"/>
	<path class="st0" d="M435.74,169.87c0.46,0.18,0.88,0.51,1.26,0.97c0.3,0.38,0.51,0.84,0.62,1.39c0.07,0.36,0.1,0.9,0.1,1.59
		l-0.02,6.81h-2.89v-6.88c0-0.41-0.07-0.75-0.2-1.01c-0.25-0.5-0.71-0.75-1.39-0.75c-0.78,0-1.32,0.32-1.61,0.97
		c-0.15,0.35-0.23,0.76-0.23,1.24v6.43h-2.84v-6.43c0-0.64-0.07-1.11-0.2-1.4c-0.23-0.52-0.7-0.78-1.39-0.78
		c-0.81,0-1.35,0.26-1.63,0.78c-0.15,0.3-0.23,0.74-0.23,1.33v6.5h-2.86v-10.78h2.74v1.57c0.35-0.56,0.68-0.96,0.99-1.2
		c0.55-0.43,1.26-0.63,2.13-0.63c0.82,0,1.49,0.18,2,0.54c0.41,0.34,0.72,0.77,0.93,1.3c0.37-0.64,0.83-1.1,1.38-1.4
		c0.58-0.3,1.23-0.45,1.94-0.45C434.81,169.59,435.27,169.68,435.74,169.87"/>
	<path class="st0" d="M443,168.54h-2.86v-2.61H443V168.54z M440.14,169.83H443v10.8h-2.86V169.83z"/>
	<path class="st0" d="M452,173.7c-0.05-0.4-0.19-0.76-0.41-1.09c-0.32-0.44-0.81-0.65-1.48-0.65c-0.96,0-1.61,0.47-1.96,1.42
		c-0.19,0.5-0.28,1.17-0.28,2c0,0.79,0.09,1.43,0.28,1.91c0.34,0.9,0.97,1.35,1.9,1.35c0.66,0,1.13-0.18,1.41-0.54
		c0.28-0.36,0.45-0.82,0.5-1.39h2.88c-0.07,0.86-0.38,1.67-0.93,2.44c-0.88,1.23-2.2,1.85-3.94,1.85c-1.74,0-3.02-0.52-3.84-1.55
		c-0.82-1.03-1.23-2.37-1.23-4.01c0-1.85,0.45-3.29,1.36-4.33c0.91-1.03,2.16-1.55,3.75-1.55c1.35,0,2.46,0.3,3.33,0.91
		c0.86,0.61,1.38,1.68,1.53,3.22H452z"/>
	<path class="st0" d="M458.81,177.18c0.06,0.5,0.19,0.86,0.39,1.07c0.35,0.38,1,0.57,1.95,0.57c0.56,0,1-0.08,1.33-0.25
		c0.33-0.16,0.49-0.41,0.49-0.74c0-0.32-0.13-0.56-0.4-0.72c-0.27-0.16-1.25-0.45-2.95-0.85c-1.23-0.3-2.09-0.68-2.59-1.14
		c-0.5-0.45-0.75-1.09-0.75-1.94c0-1,0.39-1.85,1.18-2.57c0.79-0.72,1.89-1.07,3.31-1.07c1.35,0,2.45,0.27,3.3,0.8
		c0.85,0.54,1.34,1.47,1.46,2.79h-2.82c-0.04-0.36-0.14-0.65-0.31-0.86c-0.31-0.38-0.84-0.57-1.59-0.57c-0.62,0-1.05,0.1-1.32,0.29
		c-0.26,0.19-0.39,0.42-0.39,0.67c0,0.32,0.14,0.56,0.42,0.7c0.28,0.15,1.26,0.41,2.95,0.78c1.13,0.27,1.97,0.66,2.53,1.2
		c0.55,0.54,0.83,1.22,0.83,2.03c0,1.07-0.4,1.94-1.2,2.62c-0.8,0.68-2.03,1.02-3.7,1.02c-1.7,0-2.96-0.36-3.77-1.08
		c-0.81-0.72-1.22-1.63-1.22-2.74H458.81z"/>
</g>
<g>
	<path class="st1" d="M151.02,144.64c0.75,0.34,1.38,0.87,1.86,1.6c0.44,0.64,0.73,1.39,0.86,2.23c0.07,0.49,0.1,1.21,0.09,2.14
		h-7.87c0.05,1.08,0.42,1.84,1.13,2.28c0.43,0.27,0.95,0.4,1.56,0.4c0.64,0,1.17-0.16,1.57-0.49c0.22-0.18,0.41-0.42,0.58-0.74h2.88
		c-0.07,0.64-0.43,1.29-1.05,1.95c-0.97,1.05-2.32,1.58-4.06,1.58c-1.44,0-2.7-0.44-3.8-1.33c-1.1-0.89-1.65-2.33-1.65-4.32
		c0-1.87,0.5-3.31,1.49-4.3c0.99-1,2.28-1.5,3.86-1.5C149.42,144.13,150.27,144.3,151.02,144.64 M146.8,147.08
		c-0.4,0.41-0.65,0.97-0.75,1.67h4.86c-0.05-0.75-0.3-1.32-0.75-1.71c-0.45-0.39-1.01-0.58-1.68-0.58
		C147.76,146.46,147.2,146.67,146.8,147.08 M151.82,140l-3.01,2.96h-2.04l1.9-2.96H151.82z"/>
	<path class="st1" d="M161.93,148.29c-0.05-0.4-0.19-0.77-0.41-1.09c-0.32-0.44-0.81-0.66-1.48-0.66c-0.95,0-1.61,0.47-1.96,1.41
		c-0.19,0.5-0.28,1.17-0.28,2c0,0.79,0.09,1.43,0.28,1.91c0.34,0.9,0.97,1.34,1.9,1.34c0.66,0,1.13-0.18,1.41-0.53
		c0.28-0.36,0.44-0.82,0.5-1.39h2.88c-0.06,0.86-0.38,1.67-0.93,2.44c-0.89,1.24-2.2,1.85-3.94,1.85c-1.74,0-3.02-0.52-3.84-1.55
		c-0.82-1.03-1.23-2.36-1.23-4.01c0-1.85,0.45-3.29,1.36-4.32c0.91-1.03,2.16-1.55,3.75-1.55c1.36,0,2.46,0.31,3.33,0.91
		c0.86,0.61,1.38,1.68,1.53,3.22H161.93z"/>
	<path class="st1" d="M175.97,153.9c-0.91,1.13-2.29,1.69-4.15,1.69c-1.86,0-3.24-0.56-4.15-1.69c-0.91-1.12-1.37-2.48-1.37-4.06
		c0-1.56,0.45-2.91,1.37-4.05c0.91-1.15,2.29-1.71,4.15-1.71c1.86,0,3.24,0.57,4.15,1.71c0.91,1.14,1.37,2.49,1.37,4.05
		C177.33,151.42,176.88,152.77,175.97,153.9 M173.71,152.34c0.44-0.59,0.66-1.42,0.66-2.5c0-1.08-0.22-1.91-0.66-2.5
		c-0.44-0.58-1.08-0.87-1.9-0.87c-0.83,0-1.46,0.29-1.91,0.87c-0.44,0.58-0.67,1.42-0.67,2.5c0,1.08,0.22,1.92,0.67,2.5
		c0.45,0.59,1.08,0.88,1.91,0.88C172.63,153.22,173.27,152.92,173.71,152.34"/>
	<rect x="179.62" y="140.62" class="st1" width="2.82" height="14.6"/>
	<path class="st1" d="M192.44,144.64c0.75,0.34,1.38,0.87,1.86,1.6c0.44,0.64,0.73,1.39,0.86,2.23c0.07,0.49,0.1,1.21,0.09,2.14
		h-7.87c0.05,1.08,0.42,1.84,1.13,2.28c0.43,0.27,0.95,0.4,1.56,0.4c0.64,0,1.16-0.16,1.57-0.49c0.22-0.18,0.41-0.42,0.58-0.74h2.88
		c-0.07,0.64-0.43,1.29-1.05,1.95c-0.97,1.05-2.32,1.58-4.06,1.58c-1.44,0-2.7-0.44-3.81-1.33c-1.1-0.89-1.65-2.33-1.65-4.32
		c0-1.87,0.5-3.3,1.49-4.3c0.99-1,2.28-1.5,3.86-1.5C190.84,144.13,191.68,144.3,192.44,144.64 M188.21,147.08
		c-0.4,0.41-0.65,0.97-0.75,1.67h4.86c-0.05-0.75-0.3-1.32-0.75-1.71c-0.45-0.39-1.01-0.58-1.67-0.58
		C189.17,146.46,188.61,146.67,188.21,147.08"/>
	<path class="st1" d="M208.45,144.59c0.51,0.29,0.92,0.69,1.24,1.2v-5.15h2.86v14.59h-2.74v-1.49c-0.4,0.64-0.86,1.1-1.38,1.4
		c-0.52,0.29-1.16,0.44-1.92,0.44c-1.26,0-2.33-0.51-3.19-1.53c-0.86-1.02-1.29-2.33-1.29-3.93c0-1.84,0.43-3.29,1.27-4.35
		c0.85-1.06,1.98-1.59,3.4-1.59C207.36,144.16,207.94,144.31,208.45,144.59 M209.14,152.29c0.42-0.6,0.62-1.36,0.62-2.31
		c0-1.32-0.33-2.26-1-2.83c-0.41-0.34-0.89-0.51-1.43-0.51c-0.82,0-1.43,0.31-1.82,0.94c-0.38,0.62-0.58,1.4-0.58,2.32
		c0,1,0.2,1.8,0.59,2.39c0.39,0.6,0.99,0.9,1.79,0.9C208.12,153.18,208.73,152.88,209.14,152.29"/>
	<path class="st1" d="M215.37,145.19c0.69-0.2,1.16-0.55,1.42-1.04c0.14-0.29,0.2-0.58,0.18-0.88h-1.64v-2.61h2.91v2.09
		c0,1-0.25,1.79-0.75,2.36c-0.5,0.58-1.21,0.95-2.11,1.12V145.19z"/>
	<path class="st1" d="M228.2,144.64c0.75,0.34,1.38,0.87,1.86,1.6c0.44,0.64,0.73,1.39,0.86,2.23c0.07,0.49,0.11,1.21,0.09,2.14
		h-7.87c0.04,1.08,0.42,1.84,1.13,2.28c0.43,0.27,0.95,0.4,1.56,0.4c0.64,0,1.17-0.16,1.57-0.49c0.22-0.18,0.41-0.42,0.58-0.74h2.88
		c-0.08,0.64-0.43,1.29-1.05,1.95c-0.97,1.05-2.32,1.58-4.06,1.58c-1.44,0-2.7-0.44-3.8-1.33c-1.1-0.89-1.65-2.33-1.65-4.32
		c0-1.87,0.5-3.31,1.49-4.3c0.99-1,2.28-1.5,3.86-1.5C226.6,144.13,227.45,144.3,228.2,144.64 M223.98,147.08
		c-0.4,0.41-0.65,0.97-0.75,1.67h4.86c-0.05-0.75-0.3-1.32-0.75-1.71c-0.45-0.39-1.01-0.58-1.68-0.58
		C224.94,146.46,224.38,146.67,223.98,147.08 M229,140l-3.01,2.96h-2.04l1.9-2.96H229z"/>
	<path class="st1" d="M239.11,148.29c-0.05-0.4-0.19-0.77-0.41-1.09c-0.32-0.44-0.81-0.66-1.48-0.66c-0.96,0-1.61,0.47-1.96,1.41
		c-0.19,0.5-0.28,1.17-0.28,2c0,0.79,0.09,1.43,0.28,1.91c0.34,0.9,0.97,1.34,1.9,1.34c0.66,0,1.13-0.18,1.41-0.53
		c0.28-0.36,0.45-0.82,0.5-1.39h2.88c-0.07,0.86-0.38,1.67-0.93,2.44c-0.88,1.24-2.2,1.85-3.93,1.85c-1.74,0-3.02-0.52-3.84-1.55
		c-0.82-1.03-1.23-2.36-1.23-4.01c0-1.85,0.45-3.29,1.36-4.32c0.91-1.03,2.16-1.55,3.75-1.55c1.36,0,2.46,0.31,3.32,0.91
		c0.86,0.61,1.38,1.68,1.53,3.22H239.11z"/>
	<path class="st1" d="M253.14,153.9c-0.91,1.13-2.29,1.69-4.15,1.69c-1.86,0-3.24-0.56-4.15-1.69c-0.91-1.12-1.37-2.48-1.37-4.06
		c0-1.56,0.45-2.91,1.37-4.05c0.91-1.15,2.29-1.71,4.15-1.71c1.86,0,3.24,0.57,4.15,1.71c0.91,1.14,1.37,2.49,1.37,4.05
		C254.51,151.42,254.06,152.77,253.14,153.9 M250.89,152.34c0.44-0.59,0.66-1.42,0.66-2.5c0-1.08-0.22-1.91-0.66-2.5
		c-0.45-0.58-1.08-0.87-1.9-0.87c-0.83,0-1.46,0.29-1.91,0.87c-0.45,0.58-0.67,1.42-0.67,2.5c0,1.08,0.22,1.92,0.67,2.5
		c0.45,0.59,1.08,0.88,1.91,0.88C249.81,153.22,250.44,152.92,250.89,152.34"/>
	<path class="st1" d="M265.44,145.04c0.71,0.58,1.06,1.55,1.06,2.91v7.27h-2.89v-6.57c0-0.57-0.08-1-0.23-1.31
		c-0.27-0.56-0.8-0.83-1.57-0.83c-0.95,0-1.6,0.41-1.96,1.22c-0.18,0.43-0.28,0.98-0.28,1.65v5.84h-2.82v-10.78h2.73v1.58
		c0.36-0.56,0.7-0.95,1.03-1.2c0.58-0.44,1.31-0.66,2.2-0.66C263.83,144.16,264.74,144.46,265.44,145.04"/>
	<path class="st1" d="M278.34,153.9c-0.91,1.13-2.29,1.69-4.15,1.69c-1.86,0-3.24-0.56-4.15-1.69c-0.91-1.12-1.37-2.48-1.37-4.06
		c0-1.56,0.45-2.91,1.37-4.05c0.91-1.15,2.29-1.71,4.15-1.71c1.86,0,3.24,0.57,4.15,1.71c0.91,1.14,1.37,2.49,1.37,4.05
		C279.71,151.42,279.25,152.77,278.34,153.9 M276.08,152.34c0.44-0.59,0.66-1.42,0.66-2.5c0-1.08-0.22-1.91-0.66-2.5
		c-0.44-0.58-1.08-0.87-1.9-0.87c-0.83,0-1.46,0.29-1.91,0.87c-0.44,0.58-0.67,1.42-0.67,2.5c0,1.08,0.22,1.92,0.67,2.5
		c0.45,0.59,1.08,0.88,1.91,0.88C275,153.22,275.64,152.92,276.08,152.34"/>
	<path class="st1" d="M295.41,144.46c0.46,0.18,0.88,0.51,1.26,0.97c0.3,0.38,0.51,0.84,0.62,1.39c0.07,0.37,0.1,0.9,0.1,1.6
		l-0.02,6.8h-2.89v-6.87c0-0.41-0.07-0.75-0.2-1.01c-0.25-0.5-0.71-0.75-1.39-0.75c-0.78,0-1.32,0.32-1.61,0.97
		c-0.15,0.34-0.23,0.75-0.23,1.24v6.43h-2.84v-6.43c0-0.64-0.07-1.11-0.2-1.39c-0.23-0.52-0.7-0.78-1.4-0.78
		c-0.81,0-1.35,0.26-1.62,0.78c-0.15,0.29-0.23,0.74-0.23,1.33v6.5h-2.86v-10.78h2.75v1.58c0.35-0.56,0.68-0.96,0.99-1.2
		c0.55-0.42,1.26-0.63,2.13-0.63c0.83,0,1.49,0.18,2,0.54c0.41,0.33,0.72,0.77,0.93,1.3c0.37-0.63,0.83-1.1,1.38-1.4
		c0.58-0.3,1.23-0.45,1.94-0.45C294.48,144.18,294.94,144.27,295.41,144.46"/>
	<path class="st1" d="M303.08,143.13h-2.86v-2.61h2.86V143.13z M300.22,144.42h2.86v10.8h-2.86V144.42z"/>
	<path class="st1" d="M313.05,144.64c0.75,0.34,1.38,0.87,1.87,1.6c0.44,0.64,0.73,1.39,0.86,2.23c0.07,0.49,0.1,1.21,0.09,2.14
		h-7.87c0.05,1.08,0.42,1.84,1.13,2.28c0.43,0.27,0.95,0.4,1.56,0.4c0.64,0,1.17-0.16,1.57-0.49c0.22-0.18,0.41-0.42,0.58-0.74h2.88
		c-0.07,0.64-0.43,1.29-1.05,1.95c-0.97,1.05-2.32,1.58-4.06,1.58c-1.44,0-2.71-0.44-3.81-1.33c-1.1-0.89-1.65-2.33-1.65-4.32
		c0-1.87,0.5-3.3,1.49-4.3c0.99-1,2.28-1.5,3.86-1.5C311.45,144.13,312.3,144.3,313.05,144.64 M308.83,147.08
		c-0.4,0.41-0.65,0.97-0.75,1.67h4.86c-0.05-0.75-0.3-1.32-0.75-1.71c-0.45-0.39-1.01-0.58-1.67-0.58
		C309.79,146.46,309.23,146.67,308.83,147.08"/>
	<path class="st1" d="M329.07,144.59c0.51,0.29,0.92,0.69,1.24,1.2v-5.15h2.86v14.59h-2.75v-1.49c-0.4,0.64-0.86,1.1-1.38,1.4
		c-0.52,0.29-1.16,0.44-1.92,0.44c-1.26,0-2.33-0.51-3.19-1.53c-0.86-1.02-1.29-2.33-1.29-3.93c0-1.84,0.43-3.29,1.27-4.35
		c0.85-1.06,1.98-1.59,3.41-1.59C327.98,144.16,328.56,144.31,329.07,144.59 M329.76,152.29c0.42-0.6,0.62-1.36,0.62-2.31
		c0-1.32-0.33-2.26-1-2.83c-0.41-0.34-0.88-0.51-1.43-0.51c-0.83,0-1.43,0.31-1.82,0.94c-0.38,0.62-0.58,1.4-0.58,2.32
		c0,1,0.2,1.8,0.59,2.39c0.39,0.6,0.99,0.9,1.79,0.9S329.35,152.88,329.76,152.29"/>
	<path class="st1" d="M335.98,145.19c0.69-0.2,1.16-0.55,1.42-1.04c0.14-0.29,0.2-0.58,0.18-0.88h-1.64v-2.61h2.92v2.09
		c0,1-0.25,1.79-0.75,2.36c-0.5,0.58-1.21,0.95-2.11,1.12V145.19z"/>
	<path class="st1" d="M346.06,148.65c0.53-0.07,0.9-0.15,1.13-0.25c0.41-0.17,0.61-0.44,0.61-0.8c0-0.44-0.16-0.75-0.47-0.92
		c-0.31-0.17-0.77-0.25-1.37-0.25c-0.68,0-1.16,0.17-1.44,0.5c-0.2,0.24-0.33,0.57-0.4,0.99h-2.72c0.06-0.94,0.33-1.72,0.8-2.33
		c0.75-0.95,2.04-1.43,3.86-1.43c1.19,0,2.24,0.24,3.16,0.71c0.92,0.47,1.38,1.35,1.38,2.66v4.95c0,0.35,0.01,0.76,0.02,1.25
		c0.02,0.37,0.08,0.62,0.17,0.75c0.09,0.13,0.23,0.24,0.42,0.33v0.41h-3.07c-0.09-0.22-0.15-0.42-0.18-0.61
		c-0.03-0.19-0.06-0.41-0.08-0.66c-0.39,0.42-0.84,0.79-1.36,1.08c-0.61,0.35-1.3,0.53-2.07,0.53c-0.98,0-1.8-0.28-2.44-0.84
		c-0.64-0.56-0.96-1.35-0.96-2.37c0-1.33,0.52-2.29,1.55-2.88c0.56-0.32,1.4-0.56,2.5-0.69L346.06,148.65z M347.78,149.97
		c-0.18,0.11-0.36,0.2-0.55,0.27c-0.18,0.07-0.44,0.14-0.76,0.19l-0.64,0.12c-0.6,0.11-1.03,0.24-1.3,0.39
		c-0.44,0.26-0.67,0.65-0.67,1.2c0,0.48,0.14,0.83,0.41,1.04c0.27,0.22,0.6,0.32,0.99,0.32c0.62,0,1.18-0.18,1.71-0.53
		c0.52-0.36,0.79-1.01,0.81-1.95V149.97z"/>
	<path class="st1" d="M356.17,143.13h-2.86v-2.61h2.86V143.13z M353.31,144.42h2.86v10.8h-2.86V144.42z"/>
	<polygon class="st1" points="358.04,155.22 361.72,149.75 358.2,144.44 361.65,144.44 363.45,147.57 365.22,144.44 368.58,144.44 
		365.03,149.7 368.72,155.22 365.2,155.22 363.34,151.97 361.46,155.22 	"/>
	<rect x="369.75" y="148.23" class="st1" width="5.53" height="2.67"/>
	<path class="st1" d="M391.03,144.46c0.46,0.18,0.88,0.51,1.26,0.97c0.3,0.38,0.51,0.84,0.62,1.39c0.06,0.37,0.1,0.9,0.1,1.6
		l-0.02,6.8h-2.89v-6.87c0-0.41-0.07-0.75-0.2-1.01c-0.25-0.5-0.71-0.75-1.39-0.75c-0.78,0-1.32,0.32-1.61,0.97
		c-0.15,0.34-0.23,0.75-0.23,1.24v6.43h-2.84v-6.43c0-0.64-0.07-1.11-0.2-1.39c-0.24-0.52-0.7-0.78-1.39-0.78
		c-0.81,0-1.35,0.26-1.63,0.78c-0.15,0.29-0.23,0.74-0.23,1.33v6.5h-2.86v-10.78h2.74v1.58c0.35-0.56,0.68-0.96,0.99-1.2
		c0.55-0.42,1.26-0.63,2.13-0.63c0.83,0,1.49,0.18,2,0.54c0.41,0.33,0.72,0.77,0.93,1.3c0.37-0.63,0.83-1.1,1.38-1.4
		c0.58-0.3,1.23-0.45,1.94-0.45C390.1,144.18,390.57,144.27,391.03,144.46"/>
	<path class="st1" d="M400.08,148.65c0.53-0.07,0.9-0.15,1.13-0.25c0.41-0.17,0.61-0.44,0.61-0.8c0-0.44-0.16-0.75-0.47-0.92
		c-0.31-0.17-0.77-0.25-1.37-0.25c-0.68,0-1.16,0.17-1.44,0.5c-0.2,0.24-0.33,0.57-0.4,0.99h-2.72c0.06-0.94,0.33-1.72,0.8-2.33
		c0.75-0.95,2.04-1.43,3.86-1.43c1.19,0,2.24,0.24,3.16,0.71c0.92,0.47,1.38,1.35,1.38,2.66v4.95c0,0.35,0.01,0.76,0.02,1.25
		c0.02,0.37,0.08,0.62,0.17,0.75c0.09,0.13,0.23,0.24,0.42,0.33v0.41h-3.07c-0.09-0.22-0.15-0.42-0.18-0.61
		c-0.03-0.19-0.06-0.41-0.08-0.66c-0.39,0.42-0.84,0.79-1.36,1.08c-0.61,0.35-1.3,0.53-2.07,0.53c-0.98,0-1.8-0.28-2.44-0.84
		c-0.64-0.56-0.96-1.35-0.96-2.37c0-1.33,0.52-2.29,1.55-2.88c0.56-0.32,1.4-0.56,2.5-0.69L400.08,148.65z M401.81,149.97
		c-0.18,0.11-0.36,0.2-0.55,0.27c-0.18,0.07-0.44,0.14-0.76,0.19l-0.64,0.12c-0.6,0.11-1.03,0.24-1.3,0.39
		c-0.44,0.26-0.67,0.65-0.67,1.2c0,0.48,0.14,0.83,0.41,1.04c0.27,0.22,0.6,0.32,0.99,0.32c0.62,0,1.18-0.18,1.71-0.53
		c0.52-0.36,0.79-1.01,0.81-1.95V149.97z"/>
	<path class="st1" d="M413.29,144.17c0.03,0,0.12,0.01,0.24,0.02v2.89c-0.18-0.02-0.34-0.03-0.47-0.04
		c-0.14-0.01-0.25-0.01-0.34-0.01c-1.14,0-1.9,0.37-2.29,1.11c-0.22,0.41-0.33,1.05-0.33,1.92v5.16h-2.84v-10.8h2.7v1.88
		c0.44-0.72,0.81-1.21,1.14-1.48c0.53-0.45,1.21-0.67,2.06-0.67C413.21,144.16,413.25,144.17,413.29,144.17"/>
	<path class="st1" d="M417.58,151.77c0.06,0.5,0.19,0.86,0.39,1.07c0.35,0.37,1,0.56,1.95,0.56c0.56,0,1-0.08,1.33-0.25
		c0.33-0.17,0.49-0.41,0.49-0.74c0-0.32-0.13-0.56-0.4-0.72c-0.27-0.16-1.25-0.45-2.95-0.85c-1.23-0.3-2.09-0.68-2.59-1.14
		c-0.5-0.45-0.75-1.09-0.75-1.94c0-1,0.39-1.85,1.18-2.57c0.79-0.71,1.89-1.08,3.31-1.08c1.35,0,2.45,0.27,3.3,0.81
		c0.85,0.54,1.34,1.47,1.46,2.79h-2.82c-0.04-0.36-0.14-0.65-0.31-0.86c-0.31-0.39-0.84-0.58-1.59-0.58c-0.62,0-1.05,0.1-1.32,0.29
		c-0.26,0.19-0.39,0.42-0.39,0.67c0,0.32,0.14,0.56,0.42,0.7c0.28,0.15,1.26,0.41,2.95,0.78c1.13,0.27,1.97,0.66,2.53,1.2
		c0.55,0.54,0.83,1.22,0.83,2.03c0,1.07-0.4,1.94-1.2,2.62c-0.8,0.67-2.03,1.01-3.7,1.01c-1.7,0-2.96-0.36-3.77-1.08
		c-0.81-0.71-1.22-1.63-1.22-2.74H417.58z"/>
	<path class="st1" d="M433.92,144.64c0.75,0.34,1.38,0.87,1.87,1.6c0.44,0.64,0.73,1.39,0.86,2.23c0.07,0.49,0.11,1.21,0.09,2.14
		h-7.86c0.05,1.08,0.42,1.84,1.13,2.28c0.43,0.27,0.95,0.4,1.56,0.4c0.64,0,1.17-0.16,1.57-0.49c0.22-0.18,0.41-0.42,0.58-0.74h2.88
		c-0.07,0.64-0.42,1.29-1.05,1.95c-0.97,1.05-2.32,1.58-4.06,1.58c-1.44,0-2.7-0.44-3.81-1.33c-1.1-0.89-1.65-2.33-1.65-4.32
		c0-1.87,0.5-3.3,1.49-4.3c0.99-1,2.28-1.5,3.86-1.5C432.32,144.13,433.16,144.3,433.92,144.64 M429.69,147.08
		c-0.4,0.41-0.65,0.97-0.75,1.67h4.86c-0.05-0.75-0.3-1.32-0.75-1.71c-0.45-0.39-1.01-0.58-1.68-0.58
		C430.65,146.46,430.09,146.67,429.69,147.08"/>
	<path class="st1" d="M441.27,143.13h-2.86v-2.61h2.86V143.13z M438.41,144.42h2.86v10.8h-2.86V144.42z"/>
	<rect x="444.27" y="140.62" class="st1" width="2.82" height="14.6"/>
	<rect x="450.11" y="140.62" class="st1" width="2.82" height="14.6"/>
	<path class="st1" d="M462.92,144.64c0.75,0.34,1.38,0.87,1.87,1.6c0.44,0.64,0.73,1.39,0.86,2.23c0.07,0.49,0.1,1.21,0.09,2.14
		h-7.87c0.05,1.08,0.42,1.84,1.13,2.28c0.43,0.27,0.95,0.4,1.56,0.4c0.64,0,1.17-0.16,1.57-0.49c0.22-0.18,0.41-0.42,0.58-0.74h2.88
		c-0.07,0.64-0.43,1.29-1.05,1.95c-0.97,1.05-2.32,1.58-4.06,1.58c-1.44,0-2.71-0.44-3.8-1.33c-1.1-0.89-1.65-2.33-1.65-4.32
		c0-1.87,0.5-3.3,1.49-4.3c0.99-1,2.28-1.5,3.86-1.5C461.32,144.13,462.17,144.3,462.92,144.64 M458.7,147.08
		c-0.4,0.41-0.65,0.97-0.75,1.67h4.86c-0.05-0.75-0.3-1.32-0.75-1.71c-0.45-0.39-1.01-0.58-1.67-0.58
		C459.66,146.46,459.1,146.67,458.7,147.08"/>
</g>
<path class="st1" d="M128.37,144.06c-11.97,10.42-27.6,16.73-44.68,16.73c-37.58,0-68.15-30.57-68.15-68.14
	c0-37.57,30.57-68.15,68.15-68.15c29.65,0,54.94,19.04,64.29,45.54l-5.6,1.58c-8.65-24.06-31.69-41.31-58.69-41.31
	c-34.37,0-62.34,27.97-62.34,62.34c0,34.38,27.97,62.34,62.34,62.34C98.92,154.98,113.5,151.99,128.37,144.06"/>
<path class="st0" d="M82.84,103.09L63.67,15.51c0,0,59.29,104,84.08,118.52c-42.97-2.54-69.62-7.82-120.77,26.76L82.84,103.09z"/>
</svg>
